# WaveFront *.obj file (generated by Autodesk ATF)

mtllib Bull.mtl

g Bull

v 0.005007 0.031613 -0.038000
v -0.001257 0.031982 -0.038000
v -0.007472 0.031123 -0.038000
v -0.013400 0.029067 -0.038000
v -0.018813 0.025894 -0.038000
v -0.023504 0.021726 -0.038000
v -0.027291 0.016724 -0.038000
v -0.030029 0.011078 -0.038000
v -0.031613 0.005007 -0.038000
v -0.031982 -0.001257 -0.038000
v -0.031123 -0.007472 -0.038000
v -0.029067 -0.013400 -0.038000
v -0.025894 -0.018813 -0.038000
v -0.021726 -0.023504 -0.038000
v -0.016724 -0.027291 -0.038000
v -0.011078 -0.030029 -0.038000
v -0.005007 -0.031613 -0.038000
v 0.001257 -0.031982 -0.038000
v 0.007472 -0.031123 -0.038000
v 0.013400 -0.029067 -0.038000
v 0.018813 -0.025894 -0.038000
v 0.023504 -0.021726 -0.038000
v 0.027291 -0.016724 -0.038000
v 0.030029 -0.011078 -0.038000
v 0.031613 -0.005007 -0.038000
v 0.031982 0.001257 -0.038000
v 0.031123 0.007472 -0.038000
v 0.029067 0.013400 -0.038000
v 0.025894 0.018813 -0.038000
v 0.021726 0.023504 -0.038000
v 0.016724 0.027291 -0.038000
v 0.011078 0.030029 -0.038000
v 0.005007 0.031613 0.004000
v 0.011078 0.030029 0.004000
v 0.016724 0.027291 0.004000
v 0.021726 0.023504 0.004000
v 0.025894 0.018813 0.004000
v 0.029067 0.013400 0.004000
v 0.031123 0.007472 0.004000
v 0.031982 0.001257 0.004000
v 0.031613 -0.005007 0.004000
v 0.030029 -0.011078 0.004000
v 0.027291 -0.016724 0.004000
v 0.023504 -0.021726 0.004000
v 0.018813 -0.025894 0.004000
v 0.013400 -0.029067 0.004000
v 0.007472 -0.031123 0.004000
v 0.001257 -0.031982 0.004000
v -0.005007 -0.031613 0.004000
v -0.011078 -0.030029 0.004000
v -0.016724 -0.027291 0.004000
v -0.021726 -0.023504 0.004000
v -0.025894 -0.018813 0.004000
v -0.029067 -0.013400 0.004000
v -0.031123 -0.007472 0.004000
v -0.031982 -0.001257 0.004000
v -0.031613 0.005007 0.004000
v -0.030029 0.011078 0.004000
v -0.027291 0.016724 0.004000
v -0.023504 0.021726 0.004000
v -0.018813 0.025894 0.004000
v -0.013400 0.029067 0.004000
v -0.007472 0.031123 0.004000
v -0.001257 0.031982 0.004000
vt -4.200000 4.901966 0.000000
vt -0.000000 5.530423 0.000000
vt -4.200000 5.530423 0.000000
vt -0.000000 6.158880 0.000000
vt -4.200000 6.158880 0.000000
vt -0.000000 6.787338 0.000000
vt -4.200000 6.787338 0.000000
vt -0.000000 7.415795 0.000000
vt -4.200000 7.415795 0.000000
vt -0.000000 8.044252 0.000000
vt -4.200000 8.044252 0.000000
vt -0.000000 8.672709 0.000000
vt -4.200000 8.672709 0.000000
vt -0.000000 9.301166 0.000000
vt -4.200000 9.301166 0.000000
vt -0.000000 9.929624 0.000000
vt -4.200000 9.929624 0.000000
vt -4.200000 -10.181006 0.000000
vt 0.000000 -10.181006 0.000000
vt -0.000000 -9.552549 0.000000
vt -4.200000 -9.552549 0.000000
vt -0.000000 -8.924092 0.000000
vt -4.200000 -8.924092 0.000000
vt -0.000000 -8.295635 0.000000
vt -4.200000 -8.295635 0.000000
vt -0.000000 -7.667178 0.000000
vt -4.200000 -7.667178 0.000000
vt -0.000000 -7.038721 0.000000
vt -4.200000 -7.038721 0.000000
vt -0.000000 -6.410263 0.000000
vt -4.200000 -6.410263 0.000000
vt -0.000000 -5.781806 0.000000
vt -4.200000 -5.781806 0.000000
vt -0.000000 -5.153349 0.000000
vt -4.200000 -5.153349 0.000000
vt 0.000000 -4.524892 0.000000
vt -4.200000 -4.524892 0.000000
vt 0.000000 -3.896435 0.000000
vt -4.200000 -3.896435 0.000000
vt 0.000000 -3.267977 0.000000
vt -4.200000 -3.267977 0.000000
vt 0.000000 -2.639520 0.000000
vt -4.200000 -2.639520 0.000000
vt 0.000000 -2.011063 0.000000
vt -4.200000 -2.011063 0.000000
vt 0.000000 -1.382606 0.000000
vt -4.200000 -1.382606 0.000000
vt 0.000000 -0.754149 0.000000
vt -4.200000 -0.754149 0.000000
vt 0.000000 -0.125691 0.000000
vt -4.200000 -0.125691 0.000000
vt -0.000000 0.502766 0.000000
vt -4.200000 0.502766 0.000000
vt -0.000000 1.131223 0.000000
vt -4.200000 1.131223 0.000000
vt -0.000000 1.759680 0.000000
vt -4.200000 1.759680 0.000000
vt -0.000000 2.388137 0.000000
vt -4.200000 2.388137 0.000000
vt -0.000000 3.016595 0.000000
vt -4.200000 3.016595 0.000000
vt -0.000000 3.645052 0.000000
vt -4.200000 3.645052 0.000000
vt -0.000000 4.273509 0.000000
vt -4.200000 4.273509 0.000000
vt -0.000000 4.901966 0.000000
vt 0.125659 -3.198239 0.000000
vt 0.747190 -3.112270 0.000000
vt -0.500701 -3.161300 0.000000
vt -1.107819 -3.002875 0.000000
vt 1.340007 -2.906699 0.000000
vt -1.672364 -2.729051 0.000000
vt 1.881328 -2.589426 0.000000
vt -2.172642 -2.350351 0.000000
vt 2.350351 -2.172642 0.000000
vt -2.589426 -1.881328 0.000000
vt 2.729051 -1.672364 0.000000
vt -2.906699 -1.340007 0.000000
vt 3.002875 -1.107819 0.000000
vt -3.112270 -0.747190 0.000000
vt 3.161300 -0.500701 0.000000
vt -3.198239 -0.125659 0.000000
vt 3.198239 0.125659 0.000000
vt -3.161300 0.500701 0.000000
vt 3.112270 0.747190 0.000000
vt -3.002875 1.107819 0.000000
vt 2.906699 1.340007 0.000000
vt -2.729051 1.672364 0.000000
vt 2.589426 1.881328 0.000000
vt -2.350351 2.172642 0.000000
vt 2.172642 2.350351 0.000000
vt -1.881328 2.589426 0.000000
vt 1.672364 2.729051 0.000000
vt -1.340007 2.906699 0.000000
vt 1.107819 3.002875 0.000000
vt -0.747190 3.112270 0.000000
vt 0.500701 3.161300 0.000000
vt -0.125659 3.198239 0.000000
vt -0.125659 -3.198239 0.000000
vt 0.500701 -3.161300 0.000000
vt -0.747190 -3.112270 0.000000
vt 1.107819 -3.002875 0.000000
vt -1.340007 -2.906699 0.000000
vt 1.672364 -2.729051 0.000000
vt -1.881328 -2.589426 0.000000
vt 2.172642 -2.350351 0.000000
vt -2.350351 -2.172642 0.000000
vt 2.589426 -1.881328 0.000000
vt -2.729051 -1.672364 0.000000
vt 2.906699 -1.340007 0.000000
vt -3.002875 -1.107819 0.000000
vt 3.112270 -0.747190 0.000000
vt -3.161300 -0.500701 0.000000
vt 3.198239 -0.125659 0.000000
vt -3.198239 0.125659 0.000000
vt 3.161300 0.500701 0.000000
vt -3.112270 0.747190 0.000000
vt 3.002875 1.107819 0.000000
vt -2.906699 1.340007 0.000000
vt 2.729051 1.672364 0.000000
vt -2.589426 1.881328 0.000000
vt 2.350351 2.172642 0.000000
vt -2.172642 2.350351 0.000000
vt 1.881328 2.589426 0.000000
vt -1.672364 2.729051 0.000000
vt 1.340007 2.906699 0.000000
vt -1.107819 3.002875 0.000000
vt 0.747190 3.112270 0.000000
vt -0.500701 3.161300 0.000000
vt 0.125659 3.198239 0.000000
vn -3.925982 99.922904 -0.000000
vn 15.643447 98.768834 0.000000
vn 15.643447 98.768834 0.000000
vn 34.611706 93.819134 0.000000
vn 34.611706 93.819134 0.000000
vn 52.249856 85.264016 0.000000
vn 52.249856 85.264016 0.000000
vn 67.880075 73.432251 0.000000
vn 67.880075 73.432251 0.000000
vn 80.901699 58.778525 0.000000
vn 80.901699 58.778525 0.000000
vn 90.814317 41.865974 0.000000
vn 90.814317 41.865974 0.000000
vn 97.236992 23.344536 0.000000
vn 97.236992 23.344536 0.000000
vn 99.922904 3.925982 0.000000
vn 99.922904 3.925982 0.000000
vn 98.768834 -15.643447 0.000000
vn 98.768834 -15.643447 0.000000
vn 93.819134 -34.611706 0.000000
vn 93.819134 -34.611706 0.000000
vn 85.264016 -52.249856 0.000000
vn 85.264016 -52.249856 0.000000
vn 73.432251 -67.880075 0.000000
vn 73.432251 -67.880075 0.000000
vn 58.778525 -80.901699 0.000000
vn 58.778525 -80.901699 0.000000
vn 41.865974 -90.814317 0.000000
vn 41.865974 -90.814317 0.000000
vn 23.344536 -97.236992 0.000000
vn 23.344536 -97.236992 0.000000
vn 3.925982 -99.922904 0.000000
vn 3.925982 -99.922904 0.000000
vn -15.643447 -98.768834 0.000000
vn -15.643447 -98.768834 0.000000
vn -34.611706 -93.819134 0.000000
vn -34.611706 -93.819134 0.000000
vn -52.249856 -85.264016 0.000000
vn -52.249856 -85.264016 0.000000
vn -67.880075 -73.432251 0.000000
vn -67.880075 -73.432251 0.000000
vn -80.901699 -58.778525 0.000000
vn -80.901699 -58.778525 0.000000
vn -90.814317 -41.865974 0.000000
vn -90.814317 -41.865974 0.000000
vn -97.236992 -23.344536 0.000000
vn -97.236992 -23.344536 0.000000
vn -99.922904 -3.925982 0.000000
vn -99.922904 -3.925982 0.000000
vn -98.768834 15.643447 -0.000000
vn -98.768834 15.643447 -0.000000
vn -93.819134 34.611706 -0.000000
vn -93.819134 34.611706 -0.000000
vn -85.264016 52.249856 -0.000000
vn -85.264016 52.249856 -0.000000
vn -73.432251 67.880075 -0.000000
vn -73.432251 67.880075 -0.000000
vn -58.778525 80.901699 -0.000000
vn -58.778525 80.901699 -0.000000
vn -41.865974 90.814317 -0.000000
vn -41.865974 90.814317 -0.000000
vn -23.344536 97.236992 -0.000000
vn -23.344536 97.236992 -0.000000
vn -3.925982 99.922904 -0.000000
vn 0.000000 0.000000 100.000000
vn 0.000000 0.000000 100.000000
vn 0.000000 0.000000 100.000000
vn 0.000000 0.000000 100.000000
vn 0.000000 0.000000 100.000000
vn 0.000000 0.000000 100.000000
vn 0.000000 0.000000 100.000000
vn 0.000000 0.000000 100.000000
vn 0.000000 0.000000 100.000000
vn 0.000000 0.000000 100.000000
vn 0.000000 0.000000 100.000000
vn 0.000000 0.000000 100.000000
vn 0.000000 0.000000 100.000000
vn 0.000000 0.000000 100.000000
vn 0.000000 0.000000 100.000000
vn 0.000000 0.000000 100.000000
vn 0.000000 0.000000 100.000000
vn 0.000000 0.000000 100.000000
vn 0.000000 0.000000 100.000000
vn 0.000000 0.000000 100.000000
vn 0.000000 0.000000 100.000000
vn 0.000000 0.000000 100.000000
vn 0.000000 0.000000 100.000000
vn 0.000000 0.000000 100.000000
vn 0.000000 0.000000 100.000000
vn 0.000000 0.000000 100.000000
vn 0.000000 0.000000 100.000000
vn 0.000000 0.000000 100.000000
vn 0.000000 0.000000 100.000000
vn 0.000000 0.000000 100.000000
vn 0.000000 0.000000 100.000000
vn 0.000000 0.000000 100.000000
vn 0.000000 0.000000 -100.000000
vn 0.000000 0.000000 -100.000000
vn 0.000000 0.000000 -100.000000
vn 0.000000 0.000000 -100.000000
vn 0.000000 0.000000 -100.000000
vn 0.000000 0.000000 -100.000000
vn 0.000000 0.000000 -100.000000
vn 0.000000 0.000000 -100.000000
vn 0.000000 0.000000 -100.000000
vn 0.000000 0.000000 -100.000000
vn 0.000000 0.000000 -100.000000
vn 0.000000 0.000000 -100.000000
vn 0.000000 0.000000 -100.000000
vn 0.000000 0.000000 -100.000000
vn 0.000000 0.000000 -100.000000
vn 0.000000 0.000000 -100.000000
vn 0.000000 0.000000 -100.000000
vn 0.000000 0.000000 -100.000000
vn 0.000000 0.000000 -100.000000
vn 0.000000 0.000000 -100.000000
vn 0.000000 0.000000 -100.000000
vn 0.000000 0.000000 -100.000000
vn 0.000000 0.000000 -100.000000
vn 0.000000 0.000000 -100.000000
vn 0.000000 0.000000 -100.000000
vn 0.000000 0.000000 -100.000000
vn 0.000000 0.000000 -100.000000
vn 0.000000 0.000000 -100.000000
vn 0.000000 0.000000 -100.000000
vn 0.000000 0.000000 -100.000000
vn 0.000000 0.000000 -100.000000
vn 0.000000 0.000000 -100.000000
usemtl Steel_-_Satin
f 2/1/1 33/2/2 1/3/3
f 1/3/3 33/2/2 34/4/4
f 1/3/3 34/4/4 32/5/5
f 32/5/5 34/4/4 35/6/6
f 32/5/5 35/6/6 31/7/7
f 31/7/7 35/6/6 36/8/8
f 31/7/7 36/8/8 30/9/9
f 30/9/9 36/8/8 37/10/10
f 30/9/9 37/10/10 29/11/11
f 29/11/11 37/10/10 38/12/12
f 29/11/11 38/12/12 28/13/13
f 28/13/13 38/12/12 39/14/14
f 28/13/13 39/14/14 27/15/15
f 27/15/15 39/14/14 40/16/16
f 27/15/15 40/16/16 26/17/17
f 26/18/17 40/19/16 41/20/18
f 26/18/17 41/20/18 25/21/19
f 25/21/19 41/20/18 42/22/20
f 25/21/19 42/22/20 24/23/21
f 24/23/21 42/22/20 43/24/22
f 24/23/21 43/24/22 23/25/23
f 23/25/23 43/24/22 44/26/24
f 23/25/23 44/26/24 22/27/25
f 22/27/25 44/26/24 45/28/26
f 22/27/25 45/28/26 21/29/27
f 21/29/27 45/28/26 46/30/28
f 21/29/27 46/30/28 20/31/29
f 20/31/29 46/30/28 47/32/30
f 20/31/29 47/32/30 19/33/31
f 19/33/31 47/32/30 48/34/32
f 19/33/31 48/34/32 18/35/33
f 18/35/33 48/34/32 49/36/34
f 18/35/33 49/36/34 17/37/35
f 17/37/35 49/36/34 50/38/36
f 17/37/35 50/38/36 16/39/37
f 16/39/37 50/38/36 51/40/38
f 16/39/37 51/40/38 15/41/39
f 15/41/39 51/40/38 52/42/40
f 15/41/39 52/42/40 14/43/41
f 14/43/41 52/42/40 53/44/42
f 14/43/41 53/44/42 13/45/43
f 13/45/43 53/44/42 54/46/44
f 13/45/43 54/46/44 12/47/45
f 12/47/45 54/46/44 55/48/46
f 12/47/45 55/48/46 11/49/47
f 11/49/47 55/48/46 56/50/48
f 11/49/47 56/50/48 10/51/49
f 10/51/49 56/50/48 57/52/50
f 10/51/49 57/52/50 9/53/51
f 9/53/51 57/52/50 58/54/52
f 9/53/51 58/54/52 8/55/53
f 8/55/53 58/54/52 59/56/54
f 8/55/53 59/56/54 7/57/55
f 7/57/55 59/56/54 60/58/56
f 7/57/55 60/58/56 6/59/57
f 6/59/57 60/58/56 61/60/58
f 6/59/57 61/60/58 5/61/59
f 5/61/59 61/60/58 62/62/60
f 5/61/59 62/62/60 4/63/61
f 4/63/61 62/62/60 63/64/62
f 4/63/61 63/64/62 3/65/63
f 3/65/63 63/64/62 64/66/64
f 3/65/63 64/66/64 2/1/1
f 2/1/1 64/66/64 33/2/2
f 64/67/65 63/68/66 33/69/67
f 33/69/67 63/68/66 34/70/68
f 34/70/68 63/68/66 62/71/69
f 34/70/68 62/71/69 35/72/70
f 35/72/70 62/71/69 61/73/71
f 35/72/70 61/73/71 36/74/72
f 36/74/72 61/73/71 60/75/73
f 36/74/72 60/75/73 37/76/74
f 37/76/74 60/75/73 59/77/75
f 37/76/74 59/77/75 38/78/76
f 38/78/76 59/77/75 58/79/77
f 38/78/76 58/79/77 39/80/78
f 39/80/78 58/79/77 57/81/79
f 39/80/78 57/81/79 40/82/80
f 40/82/80 57/81/79 56/83/81
f 40/82/80 56/83/81 41/84/82
f 41/84/82 56/83/81 55/85/83
f 41/84/82 55/85/83 42/86/84
f 42/86/84 55/85/83 54/87/85
f 42/86/84 54/87/85 43/88/86
f 43/88/86 54/87/85 53/89/87
f 43/88/86 53/89/87 44/90/88
f 44/90/88 53/89/87 52/91/89
f 44/90/88 52/91/89 45/92/90
f 45/92/90 52/91/89 51/93/91
f 45/92/90 51/93/91 46/94/92
f 46/94/92 51/93/91 50/95/93
f 46/94/92 50/95/93 47/96/94
f 47/96/94 50/95/93 49/97/95
f 47/96/94 49/97/95 48/98/96
f 2/99/97 1/100/98 3/101/99
f 3/101/99 1/100/98 32/102/100
f 3/101/99 32/102/100 4/103/101
f 4/103/101 32/102/100 31/104/102
f 4/103/101 31/104/102 5/105/103
f 5/105/103 31/104/102 30/106/104
f 5/105/103 30/106/104 6/107/105
f 6/107/105 30/106/104 29/108/106
f 6/107/105 29/108/106 7/109/107
f 7/109/107 29/108/106 28/110/108
f 7/109/107 28/110/108 8/111/109
f 8/111/109 28/110/108 27/112/110
f 8/111/109 27/112/110 9/113/111
f 9/113/111 27/112/110 26/114/112
f 9/113/111 26/114/112 10/115/113
f 10/115/113 26/114/112 25/116/114
f 10/115/113 25/116/114 11/117/115
f 11/117/115 25/116/114 24/118/116
f 11/117/115 24/118/116 12/119/117
f 12/119/117 24/118/116 23/120/118
f 12/119/117 23/120/118 13/121/119
f 13/121/119 23/120/118 22/122/120
f 13/121/119 22/122/120 14/123/121
f 14/123/121 22/122/120 21/124/122
f 14/123/121 21/124/122 15/125/123
f 15/125/123 21/124/122 20/126/124
f 15/125/123 20/126/124 16/127/125
f 16/127/125 20/126/124 19/128/126
f 16/127/125 19/128/126 17/129/127
f 17/129/127 19/128/126 18/130/128
# 64 vertices
# 130 texture params
# 128 normals
# 124 facets

# 1 groups
