# WaveFront *.obj file (generated by Autodesk ATF)

mtllib DoubleBull.mtl

g DoubleBull

v 0.012700 0.000000 -0.038000
v 0.012267 0.003287 -0.038000
v 0.010999 0.006350 -0.038000
v 0.008980 0.008980 -0.038000
v 0.006350 0.010999 -0.038000
v 0.003287 0.012267 -0.038000
v -0.000000 0.012700 -0.038000
v -0.003287 0.012267 -0.038000
v -0.006350 0.010999 -0.038000
v -0.008980 0.008980 -0.038000
v -0.010999 0.006350 -0.038000
v -0.012267 0.003287 -0.038000
v -0.012700 0.000000 -0.038000
v -0.012267 -0.003287 -0.038000
v -0.010999 -0.006350 -0.038000
v -0.008980 -0.008980 -0.038000
v -0.006350 -0.010999 -0.038000
v -0.003287 -0.012267 -0.038000
v -0.000000 -0.012700 -0.038000
v 0.003287 -0.012267 -0.038000
v 0.006350 -0.010999 -0.038000
v 0.008980 -0.008980 -0.038000
v 0.010999 -0.006350 -0.038000
v 0.012267 -0.003287 -0.038000
v 0.012700 0.000000 0.004000
v 0.012267 -0.003287 0.004000
v 0.010999 -0.006350 0.004000
v 0.008980 -0.008980 0.004000
v 0.006350 -0.010999 0.004000
v 0.003287 -0.012267 0.004000
v -0.000000 -0.012700 0.004000
v -0.003287 -0.012267 0.004000
v -0.006350 -0.010999 0.004000
v -0.008980 -0.008980 0.004000
v -0.010999 -0.006350 0.004000
v -0.012267 -0.003287 0.004000
v -0.012700 0.000000 0.004000
v -0.012267 0.003287 0.004000
v -0.010999 0.006350 0.004000
v -0.008980 0.008980 0.004000
v -0.006350 0.010999 0.004000
v -0.003287 0.012267 0.004000
v -0.000000 0.012700 0.004000
v 0.003287 0.012267 0.004000
v 0.006350 0.010999 0.004000
v 0.008980 0.008980 0.004000
v 0.010999 0.006350 0.004000
v 0.012267 0.003287 0.004000
vt -4.200000 3.657337 0.000000
vt -0.000000 3.657337 0.000000
vt -4.200000 3.989823 0.000000
vt -0.000000 3.989823 0.000000
vt -4.200000 -3.989823 0.000000
vt -0.000000 -3.989823 0.000000
vt -4.200000 -3.657337 0.000000
vt -0.000000 -3.657337 0.000000
vt -4.200000 -3.324852 0.000000
vt -0.000000 -3.324852 0.000000
vt -4.200000 -2.992367 0.000000
vt -0.000000 -2.992367 0.000000
vt -4.200000 -2.659882 0.000000
vt -0.000000 -2.659882 0.000000
vt -4.200000 -2.327397 0.000000
vt -0.000000 -2.327397 0.000000
vt -4.200000 -1.994911 0.000000
vt 0.000000 -1.994911 0.000000
vt -4.200000 -1.662426 0.000000
vt 0.000000 -1.662426 0.000000
vt -4.200000 -1.329941 0.000000
vt 0.000000 -1.329941 0.000000
vt -4.200000 -0.997456 0.000000
vt 0.000000 -0.997456 0.000000
vt -4.200000 -0.664970 0.000000
vt 0.000000 -0.664970 0.000000
vt -4.200000 -0.332485 0.000000
vt 0.000000 -0.332485 0.000000
vt -4.200000 0.000000 0.000000
vt -0.000000 0.000000 0.000000
vt -4.200000 0.332485 0.000000
vt -0.000000 0.332485 0.000000
vt -4.200000 0.664970 0.000000
vt -0.000000 0.664970 0.000000
vt -4.200000 0.997456 0.000000
vt -0.000000 0.997456 0.000000
vt -4.200000 1.329941 0.000000
vt -0.000000 1.329941 0.000000
vt -4.200000 1.662426 0.000000
vt -0.000000 1.662426 0.000000
vt -4.200000 1.994911 0.000000
vt -0.000000 1.994911 0.000000
vt -4.200000 2.327397 0.000000
vt -0.000000 2.327397 0.000000
vt -4.200000 2.659882 0.000000
vt -0.000000 2.659882 0.000000
vt -4.200000 2.992367 0.000000
vt -0.000000 2.992367 0.000000
vt -4.200000 3.324852 0.000000
vt -0.000000 3.324852 0.000000
vt -1.226726 -0.328700 0.000000
vt 1.226726 -0.328700 0.000000
vt -1.270000 -0.000000 0.000000
vt 1.270000 0.000000 0.000000
vt -1.226726 0.328700 0.000000
vt 1.226726 0.328700 0.000000
vt -1.099852 0.635000 0.000000
vt 1.099852 0.635000 0.000000
vt -0.898026 0.898026 0.000000
vt 0.898026 0.898026 0.000000
vt -0.635000 1.099852 0.000000
vt 0.635000 1.099852 0.000000
vt -0.328700 1.226726 0.000000
vt 0.328700 1.226726 0.000000
vt 0.000000 1.270000 0.000000
vt 1.099852 -0.635000 0.000000
vt -1.099852 -0.635000 0.000000
vt 0.898026 -0.898026 0.000000
vt -0.898026 -0.898026 0.000000
vt 0.635000 -1.099852 0.000000
vt -0.635000 -1.099852 0.000000
vt 0.328700 -1.226726 0.000000
vt -0.328700 -1.226726 0.000000
vt 0.000000 -1.270000 0.000000
vt 1.226726 0.328700 0.000000
vt -1.226726 0.328700 0.000000
vt 1.270000 -0.000000 0.000000
vt -1.270000 0.000000 0.000000
vt 1.226726 -0.328700 0.000000
vt -1.226726 -0.328700 0.000000
vt 1.099852 -0.635000 0.000000
vt -1.099852 -0.635000 0.000000
vt 0.898026 -0.898026 0.000000
vt -0.898026 -0.898026 0.000000
vt 0.635000 -1.099852 0.000000
vt -0.635000 -1.099852 0.000000
vt 0.328700 -1.226726 0.000000
vt -0.328700 -1.226726 0.000000
vt -0.000000 -1.270000 0.000000
vt -1.099852 0.635000 0.000000
vt 1.099852 0.635000 0.000000
vt -0.898026 0.898026 0.000000
vt 0.898026 0.898026 0.000000
vt -0.635000 1.099852 0.000000
vt 0.635000 1.099852 0.000000
vt -0.328700 1.226726 0.000000
vt 0.328700 1.226726 0.000000
vt -0.000000 1.270000 0.000000
vn 96.592583 25.881905 0.000000
vn 96.592583 25.881905 0.000000
vn 100.000000 0.000000 0.000000
vn 100.000000 0.000000 0.000000
vn 96.592583 -25.881905 0.000000
vn 96.592583 -25.881905 0.000000
vn 86.602540 -50.000000 0.000000
vn 86.602540 -50.000000 0.000000
vn 70.710678 -70.710678 0.000000
vn 70.710678 -70.710678 0.000000
vn 50.000000 -86.602540 0.000000
vn 50.000000 -86.602540 0.000000
vn 25.881905 -96.592583 0.000000
vn 25.881905 -96.592583 0.000000
vn -0.000000 -100.000000 0.000000
vn -0.000000 -100.000000 0.000000
vn -25.881905 -96.592583 0.000000
vn -25.881905 -96.592583 0.000000
vn -50.000000 -86.602540 0.000000
vn -50.000000 -86.602540 0.000000
vn -70.710678 -70.710678 0.000000
vn -70.710678 -70.710678 0.000000
vn -86.602540 -50.000000 0.000000
vn -86.602540 -50.000000 0.000000
vn -96.592583 -25.881905 0.000000
vn -96.592583 -25.881905 0.000000
vn -100.000000 0.000000 -0.000000
vn -100.000000 0.000000 -0.000000
vn -96.592583 25.881905 -0.000000
vn -96.592583 25.881905 -0.000000
vn -86.602540 50.000000 -0.000000
vn -86.602540 50.000000 -0.000000
vn -70.710678 70.710678 -0.000000
vn -70.710678 70.710678 -0.000000
vn -50.000000 86.602540 -0.000000
vn -50.000000 86.602540 -0.000000
vn -25.881905 96.592583 -0.000000
vn -25.881905 96.592583 -0.000000
vn -0.000000 100.000000 -0.000000
vn -0.000000 100.000000 -0.000000
vn 25.881905 96.592583 0.000000
vn 25.881905 96.592583 0.000000
vn 50.000000 86.602540 0.000000
vn 50.000000 86.602540 0.000000
vn 70.710678 70.710678 0.000000
vn 70.710678 70.710678 0.000000
vn 86.602540 50.000000 0.000000
vn 86.602540 50.000000 0.000000
vn 0.000000 0.000000 100.000000
vn 0.000000 0.000000 100.000000
vn 0.000000 0.000000 100.000000
vn 0.000000 0.000000 100.000000
vn 0.000000 0.000000 100.000000
vn 0.000000 0.000000 100.000000
vn 0.000000 0.000000 100.000000
vn 0.000000 0.000000 100.000000
vn 0.000000 0.000000 100.000000
vn 0.000000 0.000000 100.000000
vn 0.000000 0.000000 100.000000
vn 0.000000 0.000000 100.000000
vn 0.000000 0.000000 100.000000
vn 0.000000 0.000000 100.000000
vn 0.000000 0.000000 100.000000
vn 0.000000 0.000000 100.000000
vn 0.000000 0.000000 100.000000
vn 0.000000 0.000000 100.000000
vn 0.000000 0.000000 100.000000
vn 0.000000 0.000000 100.000000
vn 0.000000 0.000000 100.000000
vn 0.000000 0.000000 100.000000
vn 0.000000 0.000000 100.000000
vn 0.000000 0.000000 100.000000
vn 0.000000 0.000000 -100.000000
vn 0.000000 0.000000 -100.000000
vn 0.000000 0.000000 -100.000000
vn 0.000000 0.000000 -100.000000
vn 0.000000 0.000000 -100.000000
vn 0.000000 0.000000 -100.000000
vn 0.000000 0.000000 -100.000000
vn 0.000000 0.000000 -100.000000
vn 0.000000 0.000000 -100.000000
vn 0.000000 0.000000 -100.000000
vn 0.000000 0.000000 -100.000000
vn 0.000000 0.000000 -100.000000
vn 0.000000 0.000000 -100.000000
vn 0.000000 0.000000 -100.000000
vn 0.000000 0.000000 -100.000000
vn 0.000000 0.000000 -100.000000
vn 0.000000 0.000000 -100.000000
vn 0.000000 0.000000 -100.000000
vn 0.000000 0.000000 -100.000000
vn 0.000000 0.000000 -100.000000
vn 0.000000 0.000000 -100.000000
vn 0.000000 0.000000 -100.000000
vn 0.000000 0.000000 -100.000000
vn 0.000000 0.000000 -100.000000
usemtl Steel_-_Satin
f 2/1/1 48/2/2 1/3/3
f 1/3/3 48/2/2 25/4/4
f 1/5/3 25/6/4 24/7/5
f 24/7/5 25/6/4 26/8/6
f 24/7/5 26/8/6 23/9/7
f 23/9/7 26/8/6 27/10/8
f 23/9/7 27/10/8 22/11/9
f 22/11/9 27/10/8 28/12/10
f 22/11/9 28/12/10 21/13/11
f 21/13/11 28/12/10 29/14/12
f 21/13/11 29/14/12 20/15/13
f 20/15/13 29/14/12 30/16/14
f 20/15/13 30/16/14 19/17/15
f 19/17/15 30/16/14 31/18/16
f 19/17/15 31/18/16 18/19/17
f 18/19/17 31/18/16 32/20/18
f 18/19/17 32/20/18 17/21/19
f 17/21/19 32/20/18 33/22/20
f 17/21/19 33/22/20 16/23/21
f 16/23/21 33/22/20 34/24/22
f 16/23/21 34/24/22 15/25/23
f 15/25/23 34/24/22 35/26/24
f 15/25/23 35/26/24 14/27/25
f 14/27/25 35/26/24 36/28/26
f 14/27/25 36/28/26 13/29/27
f 13/29/27 36/28/26 37/30/28
f 13/29/27 37/30/28 12/31/29
f 12/31/29 37/30/28 38/32/30
f 12/31/29 38/32/30 11/33/31
f 11/33/31 38/32/30 39/34/32
f 11/33/31 39/34/32 10/35/33
f 10/35/33 39/34/32 40/36/34
f 10/35/33 40/36/34 9/37/35
f 9/37/35 40/36/34 41/38/36
f 9/37/35 41/38/36 8/39/37
f 8/39/37 41/38/36 42/40/38
f 8/39/37 42/40/38 7/41/39
f 7/41/39 42/40/38 43/42/40
f 7/41/39 43/42/40 6/43/41
f 6/43/41 43/42/40 44/44/42
f 6/43/41 44/44/42 5/45/43
f 5/45/43 44/44/42 45/46/44
f 5/45/43 45/46/44 4/47/45
f 4/47/45 45/46/44 46/48/46
f 4/47/45 46/48/46 3/49/47
f 3/49/47 46/48/46 47/50/48
f 3/49/47 47/50/48 2/1/1
f 2/1/1 47/50/48 48/2/2
f 48/51/49 38/52/50 25/53/51
f 25/53/51 38/52/50 37/54/52
f 25/53/51 37/54/52 26/55/53
f 26/55/53 37/54/52 36/56/54
f 26/55/53 36/56/54 27/57/55
f 27/57/55 36/56/54 35/58/56
f 27/57/55 35/58/56 28/59/57
f 28/59/57 35/58/56 34/60/58
f 28/59/57 34/60/58 29/61/59
f 29/61/59 34/60/58 33/62/60
f 29/61/59 33/62/60 30/63/61
f 30/63/61 33/62/60 32/64/62
f 30/63/61 32/64/62 31/65/63
f 38/52/50 48/51/49 39/66/64
f 39/66/64 48/51/49 47/67/65
f 39/66/64 47/67/65 40/68/66
f 40/68/66 47/67/65 46/69/67
f 40/68/66 46/69/67 41/70/68
f 41/70/68 46/69/67 45/71/69
f 41/70/68 45/71/69 42/72/70
f 42/72/70 45/71/69 44/73/71
f 42/72/70 44/73/71 43/74/72
f 24/75/73 14/76/74 1/77/75
f 1/77/75 14/76/74 13/78/76
f 1/77/75 13/78/76 2/79/77
f 2/79/77 13/78/76 12/80/78
f 2/79/77 12/80/78 3/81/79
f 3/81/79 12/80/78 11/82/80
f 3/81/79 11/82/80 4/83/81
f 4/83/81 11/82/80 10/84/82
f 4/83/81 10/84/82 5/85/83
f 5/85/83 10/84/82 9/86/84
f 5/85/83 9/86/84 6/87/85
f 6/87/85 9/86/84 8/88/86
f 6/87/85 8/88/86 7/89/87
f 14/76/74 24/75/73 15/90/88
f 15/90/88 24/75/73 23/91/89
f 15/90/88 23/91/89 16/92/90
f 16/92/90 23/91/89 22/93/91
f 16/92/90 22/93/91 17/94/92
f 17/94/92 22/93/91 21/95/93
f 17/94/92 21/95/93 18/96/94
f 18/96/94 21/95/93 20/97/95
f 18/96/94 20/97/95 19/98/96
# 48 vertices
# 98 texture params
# 96 normals
# 92 facets

# 1 groups
