# WaveFront *.obj file (generated by Autodesk ATF)

mtllib ScoreWedge.mtl

g Body38

v -0.005007 0.031613 0.004000
v -0.026591 0.167888 0.004000
v -0.026591 0.167888 -0.038000
v -0.005007 0.031613 -0.038000
v 0.005007 0.031613 0.004000
v 0.001675 0.031963 0.004000
v -0.001675 0.031963 0.004000
v -0.001675 0.031963 -0.038000
v 0.001675 0.031963 -0.038000
v 0.005007 0.031613 -0.038000
v 0.026591 0.167888 0.004000
v 0.026591 0.167888 -0.038000
v -0.013337 0.169457 0.004000
v 0.000000 0.169981 0.004000
v 0.013337 0.169457 0.004000
v 0.013337 0.169457 -0.038000
v 0.000000 0.169981 -0.038000
v -0.013337 0.169457 -0.038000
vt -0.000000 -0.000000 0.000000
vt 13.797385 0.000000 0.000000
vt 0.000000 4.200000 0.000000
vt 13.797385 4.200000 0.000000
vt 4.200000 -0.000000 0.000000
vt 0.000000 0.000000 0.000000
vt 4.200000 -0.335177 0.000000
vt 0.000000 -0.335177 0.000000
vt 0.000000 -0.670354 0.000000
vt 0.000000 -1.005532 0.000000
vt 4.200000 -1.005532 0.000000
vt 4.200000 -0.670354 0.000000
vt -0.000000 0.000000 0.000000
vt 13.797385 -0.000000 0.000000
vt 0.000000 4.200000 0.000000
vt 13.797385 4.200000 0.000000
vt -4.200000 -5.340108 0.000000
vt -0.000000 -5.340108 0.000000
vt -4.200000 -4.005081 0.000000
vt -0.000000 -4.005081 0.000000
vt -4.200000 -2.670054 0.000000
vt -0.000000 -2.670054 0.000000
vt -4.200000 -1.335027 0.000000
vt -0.000000 -1.335027 0.000000
vt -4.200000 -0.000000 0.000000
vt -0.000000 -0.000000 0.000000
vt -2.659087 -6.709121 0.000000
vt -1.333655 -6.865996 0.000000
vt -0.500701 6.918396 0.000000
vt -0.000000 -6.918396 0.000000
vt -0.167512 6.883376 0.000000
vt 0.167512 6.883376 0.000000
vt 0.500701 6.918396 0.000000
vt 1.333655 -6.865996 0.000000
vt 2.659087 -6.709121 0.000000
vt -2.659087 -6.709121 0.000000
vt -1.333655 -6.865996 0.000000
vt -0.500701 6.918396 0.000000
vt 0.000000 -6.918396 0.000000
vt -0.167512 6.883376 0.000000
vt 0.167512 6.883376 0.000000
vt 0.500701 6.918396 0.000000
vt 1.333655 -6.865996 0.000000
vt 2.659087 -6.709121 0.000000
vn -98.768834 -15.643447 0.000000
vn -98.768834 -15.643447 0.000000
vn -98.768834 -15.643447 0.000000
vn -98.768834 -15.643447 0.000000
vn -15.643447 -98.768834 0.000000
vn -15.643447 -98.768834 0.000000
vn -5.233596 -99.862953 0.000000
vn -5.233596 -99.862953 0.000000
vn 5.233596 -99.862953 0.000000
vn 15.643447 -98.768834 0.000000
vn 15.643447 -98.768834 0.000000
vn 5.233596 -99.862953 0.000000
vn 98.768834 -15.643447 0.000000
vn 98.768834 -15.643447 0.000000
vn 98.768834 -15.643447 0.000000
vn 98.768834 -15.643447 0.000000
vn -15.643447 98.768834 -0.000000
vn -15.643447 98.768834 -0.000000
vn -7.845910 99.691733 -0.000000
vn -7.845910 99.691733 -0.000000
vn -0.000000 100.000000 -0.000000
vn -0.000000 100.000000 -0.000000
vn 7.845910 99.691733 0.000000
vn 7.845910 99.691733 0.000000
vn 15.643447 98.768834 0.000000
vn 15.643447 98.768834 0.000000
vn 0.000000 0.000000 100.000000
vn 0.000000 0.000000 100.000000
vn 0.000000 0.000000 100.000000
vn 0.000000 0.000000 100.000000
vn 0.000000 0.000000 100.000000
vn 0.000000 0.000000 100.000000
vn 0.000000 0.000000 100.000000
vn 0.000000 0.000000 100.000000
vn 0.000000 0.000000 100.000000
vn 0.000000 0.000000 -100.000000
vn 0.000000 0.000000 -100.000000
vn 0.000000 0.000000 -100.000000
vn 0.000000 0.000000 -100.000000
vn 0.000000 0.000000 -100.000000
vn 0.000000 0.000000 -100.000000
vn 0.000000 0.000000 -100.000000
vn 0.000000 0.000000 -100.000000
vn 0.000000 0.000000 -100.000000
usemtl Steel_-_Satin
f 1/1/1 2/2/2 4/3/3
f 4/3/3 2/2/2 3/4/4
f 10/5/5 5/6/6 9/7/7
f 9/7/7 5/6/6 6/8/8
f 9/7/7 6/8/8 7/9/9
f 1/10/10 4/11/11 7/9/9
f 7/9/9 4/11/11 8/12/12
f 7/9/9 8/12/12 9/7/7
f 11/13/13 5/14/14 12/15/15
f 12/15/15 5/14/14 10/16/16
f 3/17/17 2/18/18 18/19/19
f 18/19/19 2/18/18 13/20/20
f 18/19/19 13/20/20 17/21/21
f 17/21/21 13/20/20 14/22/22
f 17/21/21 14/22/22 16/23/23
f 16/23/23 14/22/22 15/24/24
f 16/23/23 15/24/24 12/25/25
f 12/25/25 15/24/24 11/26/26
f 11/27/27 15/28/28 5/29/29
f 5/29/29 15/28/28 14/30/30
f 5/29/29 14/30/30 6/31/31
f 6/31/31 14/30/30 7/32/32
f 7/32/32 14/30/30 1/33/33
f 1/33/33 14/30/30 13/34/34
f 1/33/33 13/34/34 2/35/35
f 3/36/36 18/37/37 4/38/38
f 4/38/38 18/37/37 17/39/39
f 4/38/38 17/39/39 8/40/40
f 8/40/40 17/39/39 9/41/41
f 9/41/41 17/39/39 10/42/42
f 10/42/42 17/39/39 16/43/43
f 10/42/42 16/43/43 12/44/44
# 18 vertices
# 44 texture params
# 44 normals
# 32 facets

# 1 groups
